<svg xmlns="http://www.w3.org/2000/svg" fill="none" style="max-height: 500px" viewBox="0 0 416.5 323.5">
<path fill="#242625" d="M0.499756 96.5L207.5 323L416 98L334 0.5H81.4998L0.499756 96.5ZM381 107L239.5 263.5L299 109.5L381 107ZM136.5 107L281.5 108.5L209 289.5L136.5 107ZM35.4998 107L117.5 109.5L178 263.5L35.4998 107ZM333.5 25L389 92.5L307 91L333.5 25ZM82.9998 25L109.5 92L28.4998 93.5L82.9998 25ZM146 89.5L210 22L270.5 92L146 89.5ZM229.5 16L318.5 17.5L292 85.5L229.5 16ZM125.5 85.5L97.9998 16.5L188 16L125.5 85.5Z" data-index="0" style="opacity: 1;"></path>
<path fill="#242625" d="M334 0C334.147 0 334.288 0.0648862 334.383 0.177734L416.383 97.6777C416.545 97.8707 416.538 98.1549 416.367 98.3398L207.867 323.34C207.772 323.442 207.638 323.5 207.498 323.5C207.358 323.499 207.225 323.44 207.131 323.337L0.130619 96.8369C-0.038615 96.6515 -0.0439859 96.3696 0.117923 96.1777L81.1179 0.177734L81.197 0.102539C81.2833 0.0368173 81.3893 0 81.4998 0H334ZM1.16382 96.4863L207.502 322.261L415.332 97.9834L333.766 1H81.7312L1.16382 96.4863ZM281.505 108C281.67 108.002 281.824 108.085 281.916 108.222C282.007 108.359 282.025 108.532 281.964 108.686L209.464 289.686C209.388 289.875 209.203 290 208.999 290C208.794 290 208.61 289.875 208.535 289.685L136.035 107.185C135.973 107.03 135.993 106.854 136.088 106.717C136.182 106.58 136.338 106.498 136.505 106.5L281.505 108ZM209.002 288.15L280.763 108.992L137.239 107.507L209.002 288.15ZM117.515 109L117.589 109.008C117.758 109.038 117.902 109.154 117.966 109.317L178.466 263.317C178.554 263.542 178.468 263.797 178.263 263.925C178.059 264.052 177.792 264.015 177.63 263.837L35.1296 107.337C34.9945 107.188 34.9617 106.973 35.0457 106.791C35.1296 106.609 35.3147 106.494 35.5154 106.5L117.515 109ZM380.984 106.5C381.184 106.494 381.37 106.608 381.454 106.79C381.538 106.972 381.505 107.186 381.371 107.335L239.871 263.835C239.709 264.014 239.443 264.052 239.238 263.926C239.033 263.799 238.946 263.544 239.033 263.319L298.533 109.319C298.605 109.132 298.783 109.006 298.984 109L380.984 106.5ZM299.346 109.989L240.939 261.161L379.841 107.535L299.346 109.989ZM176.54 261.153L117.154 109.989L36.6638 107.535L176.54 261.153ZM83.073 24.5059C83.2496 24.5321 83.3989 24.6504 83.4646 24.8164L109.965 91.8164C110.025 91.9688 110.007 92.141 109.916 92.2773C109.825 92.4137 109.672 92.497 109.509 92.5L28.5085 94C28.3152 94.0034 28.1372 93.895 28.0515 93.7217C27.9658 93.5481 27.9876 93.34 28.1082 93.1885L82.6082 24.6885C82.7192 24.5489 82.8965 24.4797 83.073 24.5059ZM333.424 24.5059C333.598 24.479 333.773 24.5463 333.885 24.6826L389.385 92.1826C389.509 92.3333 389.535 92.5422 389.45 92.7178C389.365 92.8932 389.186 93.0034 388.991 93L306.991 91.5C306.827 91.497 306.674 91.4134 306.583 91.2764C306.492 91.1393 306.475 90.966 306.536 90.8135L333.036 24.8135L333.064 24.7549C333.139 24.6222 333.271 24.5294 333.424 24.5059ZM29.5525 92.9795L108.769 91.5127L82.8523 25.9873L29.5525 92.9795ZM210.011 21.5C210.152 21.5033 210.285 21.5662 210.378 21.6729L270.878 91.6729C271.007 91.8222 271.036 92.0342 270.952 92.2129C270.868 92.3913 270.687 92.5038 270.49 92.5L145.99 90C145.792 89.996 145.615 89.8751 145.539 89.6924C145.463 89.5099 145.501 89.2998 145.636 89.1562L209.636 21.6562L209.717 21.5879C209.802 21.5289 209.906 21.4976 210.011 21.5ZM307.733 90.5127L387.926 91.9795L333.649 25.9678L307.733 90.5127ZM147.141 89.0225L269.387 91.4766L209.982 22.7441L147.141 89.0225ZM187.997 15.5C188.195 15.4989 188.375 15.6145 188.456 15.7949C188.537 15.9753 188.504 16.1868 188.372 16.334L125.872 85.834C125.756 85.9625 125.582 86.0226 125.412 85.9922C125.242 85.9618 125.099 85.846 125.035 85.6855L97.5349 16.6855C97.4737 16.5321 97.4925 16.3577 97.5847 16.2207C97.6771 16.0837 97.8316 16.001 97.9968 16L187.997 15.5ZM318.509 17C318.672 17.0029 318.824 17.0859 318.915 17.2217C319.006 17.3575 319.025 17.5292 318.966 17.6816L292.466 85.6816C292.403 85.8433 292.26 85.961 292.09 85.9922C291.919 86.0233 291.744 85.963 291.628 85.834L229.128 16.334C228.995 16.1862 228.962 15.9738 229.045 15.793C229.127 15.6119 229.31 15.4966 229.509 15.5L318.509 17ZM98.7361 16.9951L125.666 84.5664L186.872 16.5059L98.7361 16.9951ZM291.828 84.5615L317.772 17.9873L230.638 16.5186L291.828 84.5615Z" data-index="1" style="opacity: 1;"></path>
</svg>
